HIERARCHY
ROOT Hips
{
  OFFSET 5.72205e-005 65.662 3.42586
  CHANNELS 6 Xposition Yposition Zposition Zrotation Xrotation Yrotation
  JOINT Chest
  {
    OFFSET 0 8.7983 -4.7612
    CHANNELS 3 Zrotation Xrotation Yrotation
    JOINT Chest2
    {
      OFFSET 0 8.0291 0.4195
      CHANNELS 3 Zrotation Xrotation Yrotation
      JOINT Chest3
      {
        OFFSET 0 9.9351 -2.2114
        CHANNELS 3 Zrotation Xrotation Yrotation
        JOINT Neck
        {
          OFFSET 0 22.3885 -0.4656
          CHANNELS 3 Zrotation Xrotation Yrotation
          JOINT Head
          {
            OFFSET -0.0001 12.643 3.4389
            CHANNELS 3 Zrotation Xrotation Yrotation
            End Site
            {
              OFFSET 0.0001 17.6655 0.5274
            }
          }
        }
        JOINT LeftCollar
        {
          OFFSET 2.2603 21.606 7.4023
          CHANNELS 3 Zrotation Xrotation Yrotation
          JOINT LeftShoulder
          {
            OFFSET 13.5163 -1.1332 -5.0146
            CHANNELS 3 Zrotation Xrotation Yrotation
            JOINT LeftElbow
            {
              OFFSET -0.0995 -28.05 -0.2431
              CHANNELS 3 Zrotation Xrotation Yrotation
              JOINT LeftWrist
              {
                OFFSET 0.0679 -23.3996 -0.1402
                CHANNELS 3 Zrotation Xrotation Yrotation
                JOINT LeftFinger1
                {
                  OFFSET 0.7932 -9.069 2.5189
                  CHANNELS 3 Zrotation Xrotation Yrotation
                  JOINT LeftFinger11
                  {
                    OFFSET -0.8272 -3.3923 0.5977
                    CHANNELS 3 Zrotation Xrotation Yrotation
                    JOINT LeftFinger12
                    {
                      OFFSET -0.5649 -2.3158 0.4082
                      CHANNELS 3 Zrotation Xrotation Yrotation
                      End Site
                      {
                        OFFSET -0.4919 -1.6479 0.2673
                      }
                    }
                  }
                }
                JOINT LeftFinger2
                {
                  OFFSET 0.9159 -9.2044 0.2193
                  CHANNELS 3 Zrotation Xrotation Yrotation
                  JOINT LeftFinger21
                  {
                    OFFSET 0.0117 -4.1944 -0.0248
                    CHANNELS 3 Zrotation Xrotation Yrotation
                    JOINT LeftFinger22
                    {
                      OFFSET 0.0071 -2.3249 -0.0142
                      CHANNELS 3 Zrotation Xrotation Yrotation
                      End Site
                      {
                        OFFSET -0.1475 -2.0882 0.0028
                      }
                    }
                  }
                }
                JOINT LeftFinger3
                {
                  OFFSET 0.6113 -8.7231 -2.0637
                  CHANNELS 3 Zrotation Xrotation Yrotation
                  JOINT LeftFinger31
                  {
                    OFFSET -0.1927 -3.8059 -0.2383
                    CHANNELS 3 Zrotation Xrotation Yrotation
                    JOINT LeftFinger32
                    {
                      OFFSET -0.1091 -2.1688 -0.1362
                      CHANNELS 3 Zrotation Xrotation Yrotation
                      End Site
                      {
                        OFFSET -0.2358 -1.9176 -0.0906
                      }
                    }
                  }
                }
                JOINT LeftFinger4
                {
                  OFFSET -0.6151 -8.0947 -3.5641
                  CHANNELS 3 Zrotation Xrotation Yrotation
                  JOINT LeftFinger41
                  {
                    OFFSET -0.4882 -2.341 -0.6462
                    CHANNELS 3 Zrotation Xrotation Yrotation
                    JOINT LeftFinger42
                    {
                      OFFSET -0.3575 -1.7167 -0.4742
                      CHANNELS 3 Zrotation Xrotation Yrotation
                      End Site
                      {
                        OFFSET -0.4187 -1.5237 -0.3496
                      }
                    }
                  }
                }
                JOINT LeftFinger0
                {
                  OFFSET -1.42 -1.8761 1.4223
                  CHANNELS 3 Zrotation Xrotation Yrotation
                  JOINT LeftFinger01
                  {
                    OFFSET -1.1471 -3.4929 2.6334
                    CHANNELS 3 Zrotation Xrotation Yrotation
                    JOINT LeftFinger02
                    {
                      OFFSET -0.823 -2.3 1.6571
                      CHANNELS 3 Zrotation Xrotation Yrotation
                      End Site
                      {
                        OFFSET -0.5822 -1.6914 1.1582
                      }
                    }
                  }
                }
              }
            }
          }
        }
        JOINT RightCollar
        {
          OFFSET -2.2603 21.606 7.4023
          CHANNELS 3 Zrotation Xrotation Yrotation
          JOINT RightShoulder
          {
            OFFSET -13.5187 -1.1334 -5.0155
            CHANNELS 3 Zrotation Xrotation Yrotation
            JOINT RightElbow
            {
              OFFSET 0.0994 -28.0499 -0.2431
              CHANNELS 3 Zrotation Xrotation Yrotation
              JOINT RightWrist
              {
                OFFSET -0.0679 -23.3996 -0.1402
                CHANNELS 3 Zrotation Xrotation Yrotation
                JOINT RightFinger1
                {
                  OFFSET -0.7932 -9.0691 2.5189
                  CHANNELS 3 Zrotation Xrotation Yrotation
                  JOINT RightFinger11
                  {
                    OFFSET 0.8272 -3.3923 0.5977
                    CHANNELS 3 Zrotation Xrotation Yrotation
                    JOINT RightFinger12
                    {
                      OFFSET 0.565 -2.3158 0.4082
                      CHANNELS 3 Zrotation Xrotation Yrotation
                      End Site
                      {
                        OFFSET 0.4919 -1.6479 0.2673
                      }
                    }
                  }
                }
                JOINT RightFinger2
                {
                  OFFSET -0.916 -9.2044 0.2193
                  CHANNELS 3 Zrotation Xrotation Yrotation
                  JOINT RightFinger21
                  {
                    OFFSET -0.0117 -4.1944 -0.0248
                    CHANNELS 3 Zrotation Xrotation Yrotation
                    JOINT RightFinger22
                    {
                      OFFSET -0.0071 -2.3249 -0.0142
                      CHANNELS 3 Zrotation Xrotation Yrotation
                      End Site
                      {
                        OFFSET 0.1475 -2.0882 0.0028
                      }
                    }
                  }
                }
                JOINT RightFinger3
                {
                  OFFSET -0.6113 -8.7231 -2.0637
                  CHANNELS 3 Zrotation Xrotation Yrotation
                  JOINT RightFinger31
                  {
                    OFFSET 0.1927 -3.8059 -0.2383
                    CHANNELS 3 Zrotation Xrotation Yrotation
                    JOINT RightFinger32
                    {
                      OFFSET 0.1091 -2.1688 -0.1362
                      CHANNELS 3 Zrotation Xrotation Yrotation
                      End Site
                      {
                        OFFSET 0.2358 -1.9176 -0.0906
                      }
                    }
                  }
                }
                JOINT RightFinger4
                {
                  OFFSET 0.6151 -8.0947 -3.564
                  CHANNELS 3 Zrotation Xrotation Yrotation
                  JOINT RightFinger41
                  {
                    OFFSET 0.4882 -2.341 -0.6462
                    CHANNELS 3 Zrotation Xrotation Yrotation
                    JOINT RightFinger42
                    {
                      OFFSET 0.3574 -1.7166 -0.4742
                      CHANNELS 3 Zrotation Xrotation Yrotation
                      End Site
                      {
                        OFFSET 0.4187 -1.5237 -0.3496
                      }
                    }
                  }
                }
                JOINT RightFinger0
                {
                  OFFSET 1.4199 -1.8761 1.4221
                  CHANNELS 3 Zrotation Xrotation Yrotation
                  JOINT RightFinger01
                  {
                    OFFSET 1.1472 -3.4929 2.6336
                    CHANNELS 3 Zrotation Xrotation Yrotation
                    JOINT RightFinger02
                    {
                      OFFSET 0.8229 -2.3 1.6571
                      CHANNELS 3 Zrotation Xrotation Yrotation
                      End Site
                      {
                        OFFSET 0.5822 -1.6914 1.1582
                      }
                    }
                  }
                }
              }
            }
          }
        }
      }
    }
  }
  JOINT RightHip
  {
    OFFSET -9.412 3.9771 -0.7758
    CHANNELS 3 Zrotation Xrotation Yrotation
    JOINT RightKnee
    {
      OFFSET -0.7531 -40.938 0
      CHANNELS 3 Zrotation Xrotation Yrotation
      JOINT RightAnkle
      {
        OFFSET 0 -40.1986 0
        CHANNELS 3 Zrotation Xrotation Yrotation
        JOINT RightToe
        {
          OFFSET 0 -4.4182 9.239
          CHANNELS 3 Zrotation Xrotation Yrotation
          End Site
          {
            OFFSET 0 0 6.1981
          }
        }
      }
    }
  }
  JOINT LeftHip
  {
    OFFSET 9.4119 3.9773 -0.7758
    CHANNELS 3 Zrotation Xrotation Yrotation
    JOINT LeftKnee
    {
      OFFSET 0.7532 -40.9383 0
      CHANNELS 3 Zrotation Xrotation Yrotation
      JOINT LeftAnkle
      {
        OFFSET 0 -40.1986 0
        CHANNELS 3 Zrotation Xrotation Yrotation
        JOINT LeftToe
        {
          OFFSET 0 -4.4182 9.239
          CHANNELS 3 Zrotation Xrotation Yrotation
          End Site
          {
            OFFSET 0 0 6.1981
          }
        }
      }
    }
  }
}
MOTION
Frames:	4
Frame Time:	0.0333333
5.72205e-005 65.662 3.42586 0 0 -0 0 0 -0 0 0 -0 0 0 -0 0 0 -0 0 0 -0 0 0 -12.5014 88.1196 14.2451 10.6914 -0.00160068 -0.00239207 0.000740045 -8.4365e-005 7.00714e-005 -9.52055e-007 9.93923e-017 -1.98785e-016 -1.59028e-015 9.93923e-017 -5.96354e-016 -1.59028e-015 -9.93923e-017 -5.96354e-016 -1.59028e-015 9.93923e-017 -1.98785e-016 -1.59028e-015 -0.0128176 0.00232552 8.52707e-005 9.93923e-017 5.96354e-016 -0 9.93923e-017 -1.98785e-016 -1.59028e-015 -0.0160551 0.00299681 0.000857156 -2.48481e-016 0 3.18055e-015 9.93923e-017 -1.98785e-016 -1.59028e-015 -0.0125865 0.0031206 0.00282719 0 1.98785e-016 -0 9.93923e-017 -1.98785e-016 -1.59028e-015 9.93923e-017 -5.96354e-016 -1.59028e-015 -9.93923e-017 -5.96354e-016 -1.59028e-015 -0.865644 0.16582 7.03859 -88.0329 10.2057 -10.5567 0.0015593 -0.00248883 -0.000788628 7.87605e-005 4.10553e-005 1.24965e-005 -3.97569e-016 -7.95139e-016 3.18055e-015 -1.98785e-016 -3.97569e-016 3.18055e-015 -1.98785e-016 0 3.18055e-015 -3.97569e-016 -7.95139e-016 3.18055e-015 0.0129473 0.00231697 -8.70038e-005 9.93923e-017 -7.95139e-016 1.59028e-015 -3.97569e-016 -7.95139e-016 3.18055e-015 0.0163314 0.00303369 -0.000872333 3.97569e-016 7.95139e-016 -3.18055e-015 -3.97569e-016 -7.95139e-016 3.18055e-015 0.0145763 0.00367772 -0.00326275 9.93923e-017 -3.97569e-016 -0 -3.97569e-016 -7.95139e-016 3.18055e-015 -1.98785e-016 -3.97569e-016 3.18055e-015 -1.98785e-016 0 3.18055e-015 3.42482 1.32465 -0.0626183 0.000117508 0.717283 0.000978199 -3.4257 -2.04197 -0.0604716 6.47761e-025 0 -0 -3.42483 1.34017 0.0627307 -0.000193936 0.682302 -0.0013703 3.42574 -2.02253 0.0595886 -8.45714e-024 0 -7.40531e-025 
29.5714 65.5309 4.39524 7.93757e-010 2.97923 -2.3367e-009 -0.0285031 0.300388 -0.0918428 -0.0565258 0.600822 -0.18354 -0.0565268 0.600833 -0.183543 -5.39361e-005 -0.558548 -0.000167163 1.27107e-007 -0.195583 8.92735e-009 -3.67106 0.0835009 -6.82697 46.978 17.2805 1.19517 -33.8955 -24.9848 -11.3997 -5.09859 0.93148 -0.116577 7.95139e-016 -2.38542e-015 -3.18055e-015 -3.97569e-016 -2.38542e-015 -1.59028e-015 -1.59028e-015 -3.18055e-015 -4.77083e-015 7.95139e-016 -2.38542e-015 -3.18055e-015 -0.0128169 0.00232931 8.62152e-005 -3.97569e-016 7.95139e-016 1.59028e-015 7.95139e-016 -2.38542e-015 -3.18055e-015 -0.0160827 0.00300385 0.000858874 2.78299e-015 2.38542e-015 -1.59028e-015 7.95139e-016 -2.38542e-015 -3.18055e-015 -0.0126208 0.00312743 0.00283232 1.19271e-015 7.95139e-016 -1.59028e-015 7.95139e-016 -2.38542e-015 -3.18055e-015 -3.97569e-016 -2.38542e-015 -1.59028e-015 -1.59028e-015 -3.18055e-015 -4.77083e-015 2.82337 0.334164 1.36309 -48.1976 14.277 2.78649 33.8233 -25.0365 11.6012 5.09161 0.923796 0.245888 2.28602e-015 -7.95139e-016 -3.18055e-015 6.95746e-016 -7.95139e-016 -1.59028e-015 -4.96962e-016 -7.95139e-016 -0 2.28602e-015 -7.95139e-016 -3.18055e-015 0.0129494 0.00231876 -8.98158e-005 -1.68967e-015 0 -0 2.28602e-015 -7.95139e-016 -3.18055e-015 0.0163437 0.00303919 -0.00087602 2.88238e-015 -1.59028e-015 3.18055e-015 2.28602e-015 -7.95139e-016 -3.18055e-015 0.0145608 0.00367611 -0.00325747 -1.49089e-015 1.59028e-015 -0 2.28602e-015 -7.95139e-016 -3.18055e-015 6.95746e-016 -7.95139e-016 -1.59028e-015 -4.96962e-016 -7.95139e-016 -0 -1.16416 -5.1077 -4.48159 4.4224 10.1381 -1.03651 -9.6815 -4.18912 2.04255 -1.58229e-008 -6.36339e-010 2.12742e-007 2.63568 -5.59476 2.61613 -2.31562 10.7973 0.523388 5.89704 -4.25753 -0.352738 1.51607e-008 -5.5717e-010 -2.12811e-007 
42.8777 65.4597 4.8883 1.15119e-008 4.23843 1.38038e-007 -0.0466704 0.423576 -0.131977 -0.0923686 0.847256 -0.26362 -0.0923687 0.847257 -0.263621 4.72652e-005 -0.52486 0.000129339 -3.36725e-008 -0.283593 -2.94043e-007 -5.32827 0.119192 -4.27319 28.5437 16.9467 -4.22355 -49.0901 -36.4965 -16.3539 -7.39341 1.35328 -0.142259 -7.95139e-016 0 -0 -1.59028e-015 -8.91449e-007 -1.59028e-015 -1.59028e-015 8.91449e-007 4.77083e-015 -7.95139e-016 0 -0 -0.012838 0.002331 8.73781e-005 -1.75318e-007 -9.90285e-008 -8.23252e-007 -7.95139e-016 0 -0 -0.0160487 0.00299607 0.000858804 5.56597e-015 -3.18055e-015 -3.18055e-015 -7.95139e-016 0 -0 -0.0124846 0.00310378 0.00280921 -3.97569e-016 8.85263e-008 -3.18055e-015 -7.95139e-016 0 -0 -1.59028e-015 -8.91449e-007 -1.59028e-015 -1.59028e-015 8.91449e-007 4.77083e-015 4.49162 0.40733 -1.19051 -30.2401 15.1378 9.44882 49.1033 -36.4688 16.5873 7.38278 1.34569 0.330049 -4.37326e-015 1.59028e-015 -1.59028e-015 -7.15625e-015 8.44539e-007 -1.59028e-015 4.37326e-015 1.59028e-015 -0 -4.37326e-015 1.59028e-015 -1.59028e-015 0.012959 0.00232003 -8.51136e-005 -3.36525e-007 8.60058e-007 -1.65539e-006 -4.37326e-015 1.59028e-015 -1.59028e-015 0.0163522 0.00303217 -0.000873777 -1.22782e-005 1.68388e-006 -3.01166e-007 -4.37326e-015 1.59028e-015 -1.59028e-015 0.014593 0.00368068 -0.00326192 -1.68239e-007 -8.44565e-007 -8.27706e-007 -4.37326e-015 1.59028e-015 -1.59028e-015 -7.15625e-015 8.44539e-007 -1.59028e-015 4.37326e-015 1.59028e-015 -0 -3.57624 -7.90356 -6.57634 6.51988 14.5725 -1.52897 -12.4493 -5.23155 2.99434 9.93923e-016 0 -0 5.57409 -8.56459 3.8227 -3.40681 15.3776 0.775021 6.99955 -5.27052 -0.541514 2.14872e-006 2.17471e-006 -3.70491e-007 
39.9208 65.485 4.90702 6.43551e-008 3.77757 -5.79306e-008 -0.0422326 0.369211 -0.123297 -0.0836744 0.738546 -0.246333 -0.0836732 0.738534 -0.246329 0.000106748 0.103197 0.000310938 5.31186e-008 -0.264035 5.32323e-009 -4.95963 0.110568 -4.84051 32.6222 17.0849 -2.92927 -45.7274 -33.9062 -15.2522 -6.88367 1.25908 -0.138334 8.34896e-015 0 -3.18055e-015 1.19271e-015 0 -0 3.57812e-015 -3.18055e-015 -4.77083e-015 8.34896e-015 0 -3.18055e-015 -0.0128072 0.0023247 8.63671e-005 3.57812e-015 -3.18055e-015 -0 8.34896e-015 0 -3.18055e-015 -0.0160329 0.00299234 0.000857196 1.19271e-015 -3.18055e-015 -0 8.34896e-015 0 -3.18055e-015 -0.0125703 0.00312185 0.00282375 1.98785e-015 -3.18055e-015 -0 8.34896e-015 0 -3.18055e-015 1.19271e-015 0 -0 3.57812e-015 -3.18055e-015 -4.77083e-015 4.12055 0.390462 -0.622745 -34.225 14.9869 7.9182 45.7172 -33.9045 15.4861 6.87391 1.2513 0.31306 -5.36719e-015 -8.56555e-007 -1.59028e-015 -0 -4.77083e-015 -0 -1.47646e-007 1.28283e-008 -8.30742e-007 -5.36719e-015 -8.56555e-007 -1.59028e-015 0.0129611 0.00232032 -8.74236e-005 1.33385e-007 8.46567e-007 -2.28543e-006 -5.36719e-015 -8.56555e-007 -1.59028e-015 0.0162995 0.0030289 -0.000874008 -7.7526e-015 -4.77083e-015 -1.59028e-015 -5.36719e-015 -8.56555e-007 -1.59028e-015 0.0145834 0.00368039 -0.0032631 -3.77691e-015 -8.56569e-007 -0 -5.36719e-015 -8.56555e-007 -1.59028e-015 -0 -4.77083e-015 -0 -1.47646e-007 1.28283e-008 -8.30742e-007 -3.04022 -6.96533 -6.23989 6.04687 13.593 -1.4179 -11.8365 -5.00249 2.78206 -7.95139e-016 2.46971e-008 3.97569e-016 4.91695 -7.58844 3.60893 -3.16153 14.3704 0.718457 6.75503 -5.05012 -0.499107 2.11342e-008 4.23767e-007 -2.12259e-007 
